<?xml version="1.0" encoding="UTF-8" standalone="no"?>
<!-- Created with Inkscape (http://www.inkscape.org/) -->

<svg
   width="300"
   height="282.64865"
   viewBox="0 0 79.374995 74.784125"
   version="1.1"
   id="svg5"
   sodipodi:docname="clipartwater.svg"
   inkscape:version="1.1 (c68e22c387, 2021-05-23)"
   xmlns:inkscape="http://www.inkscape.org/namespaces/inkscape"
   xmlns:sodipodi="http://sodipodi.sourceforge.net/DTD/sodipodi-0.dtd"
   xmlns="http://www.w3.org/2000/svg"
   xmlns:svg="http://www.w3.org/2000/svg">
  <sodipodi:namedview
     id="namedview7"
     pagecolor="#505050"
     bordercolor="#ffffff"
     borderopacity="1"
     inkscape:pageshadow="0"
     inkscape:pageopacity="0"
     inkscape:pagecheckerboard="1"
     inkscape:document-units="mm"
     showgrid="false"
     inkscape:zoom="4"
     inkscape:cx="52.25"
     inkscape:cy="125.75"
     inkscape:window-width="3840"
     inkscape:window-height="2066"
     inkscape:window-x="-11"
     inkscape:window-y="-11"
     inkscape:window-maximized="1"
     inkscape:current-layer="layer1"
     fit-margin-top="0"
     fit-margin-left="0"
     fit-margin-right="0"
     fit-margin-bottom="0"
     units="px"
     height="318.19864px" />
  <defs
     id="defs2">
    <clipPath
       clipPathUnits="userSpaceOnUse"
       id="clipPath1439">
      <rect
         style="fill:#0000db;fill-opacity:1;stroke-width:0.264583"
         id="rect1441"
         width="129.7036"
         height="100.70103"
         x="31.82445"
         y="51.728146" />
    </clipPath>
    <clipPath
       clipPathUnits="userSpaceOnUse"
       id="clipPath1439-4">
      <rect
         style="fill:#0000db;fill-opacity:1;stroke-width:0.264583"
         id="rect1441-7"
         width="129.7036"
         height="100.70103"
         x="31.82445"
         y="51.728146" />
    </clipPath>
  </defs>
  <g
     inkscape:groupmode="layer"
     id="layer2"
     inkscape:label="background">
    <rect
       style="fill:#121212;fill-opacity:1;stroke-width:0.267094"
       id="rect3255"
       width="81.023605"
       height="74.94323"
       x="-0.85484982"
       y="-0.13229166" />
  </g>
  <g
     inkscape:label="Layer 1"
     inkscape:groupmode="layer"
     id="layer1"
     transform="translate(-32.105639,-100.76084)">
    <path
       style="fill:#333333;stroke:none;stroke-width:0.0833154;fill-opacity:1"
       d="m 49.142999,58.817128 c 0.587959,1.397701 1.943584,2.693507 2.999358,3.749198 5.387931,5.387597 14.370177,6.624583 21.162141,3.228642 3.307626,-1.653813 5.235796,-4.266504 7.58171,-6.97784 0.593625,1.411365 1.93467,2.684509 2.999359,3.749198 5.424839,5.42484 14.52189,6.655575 21.328773,3.144411 1.66514,-0.8589 3.29212,-2.023986 4.57493,-3.394441 1.03153,-1.102014 1.83036,-2.392796 2.84015,-3.499168 0.57737,1.500929 2.11621,2.907044 3.2493,4.002395 5.41884,5.23488 14.40609,6.333061 21.07882,2.891214 1.66548,-0.8589 3.2918,-2.023986 4.57486,-3.394441 1.03228,-1.102431 1.82961,-2.391838 2.84023,-3.499168 0.46739,1.215323 1.67547,2.423648 2.58278,3.33262 2.76191,2.766573 6.0437,4.583353 9.91454,5.228299 4.8341,0.50443 5.97456,0.828821 5.97039,-2.395573 -0.002,-1.183246 8.35514,-1.537839 -2.05456,-2.555368 -1.19391,-0.209789 -2.39032,-0.137388 -3.58257,-0.435241 -3.05018,-0.762336 -5.62463,-2.652016 -7.74084,-4.924363 -0.78067,-0.838445 -1.49635,-1.786751 -2.11621,-2.749412 -0.87065,-1.351386 -1.7138,-2.975631 -3.64006,-2.507825 -1.26723,0.307867 -1.70047,1.335601 -2.337,2.341194 -0.71235,1.12426 -1.53384,2.179767 -2.42614,3.16599 -2.99187,3.306709 -7.16681,5.298782 -11.65001,4.991515 -3.99332,-0.273775 -7.6392,-2.818305 -10.11367,-5.82467 -1.30556,-1.586961 -2.49697,-5.170312 -5.04976,-4.710286 -1.36496,0.246 -1.83385,1.319386 -2.50388,2.377451 -0.69018,1.089826 -1.47701,2.125696 -2.34258,3.082674 -2.99527,3.311708 -7.28178,5.501407 -11.816638,5.068082 -3.935908,-0.376086 -7.363924,-2.710303 -9.878886,-5.651291 -0.693684,-0.811268 -1.320885,-1.682614 -1.89401,-2.58278 -0.748007,-1.174849 -1.362877,-2.383107 -2.97395,-2.329234 -1.54167,0.05155 -2.116045,1.273793 -2.837141,2.412549 -0.709766,1.120769 -1.514177,2.194364 -2.419148,3.16599 -3.082425,3.309209 -7.036996,5.194303 -11.573443,4.99568 C 59.91403,62.139 56.247145,59.497899 53.774509,56.567609 52.506862,55.06533 51.332782,51.583893 48.97637,51.762373 c -1.747544,0.132367 -2.243772,1.529037 -3.111335,2.805664 -1.044277,1.536604 -2.298174,3.011856 -3.720544,4.212515 -1.86526,1.574497 -4.01532,2.794402 -6.41529,3.314041 -2.184704,0.19067 -9.215711,0.816972 -4.73034,1.388536 -0.93254,1.355045 -5.144833,2.047409 -0.02342,3.968885 1.46383,0.519388 4.77364,0.09258 6.25344,-0.203357 3.39211,-0.678356 6.55585,-2.382073 8.974331,-4.863127 1.086933,-1.115011 1.927754,-2.398736 2.939787,-3.568402 m 0,42.324282 c 0.647446,1.36854 1.857187,2.60702 2.916044,3.66588 5.421089,5.42076 14.386088,6.73981 21.245455,3.31013 1.724881,-0.86248 3.417184,-2.07231 4.741568,-3.47709 1.035861,-1.09885 1.830025,-2.39224 2.840142,-3.49892 0.590624,1.4042 1.939504,2.68943 2.999359,3.7492 5.383598,5.38326 14.373506,6.62108 21.162143,3.22681 1.72488,-0.86248 3.41718,-2.07231 4.74156,-3.47709 1.03628,-1.09926 1.82911,-2.39132 2.84015,-3.49892 0.6092,1.44819 1.99124,2.74091 3.08267,3.83251 6.11702,6.11645 16.77308,6.65416 23.66161,1.53051 1.72129,-1.28039 4.04996,-3.30005 4.83229,-5.36302 h 0.16664 c 0.46406,1.20649 1.68214,2.42756 2.58278,3.33262 2.71192,2.72542 6.07453,4.66059 9.91454,5.22622 7.14112,0.45247 5.97456,0.85873 5.97039,-2.39349 -0.002,-1.20241 7.30117,-1.53339 -2.05456,-2.5557 -1.2489,-0.23379 -2.49946,-0.1708 -3.7492,-0.48323 -2.92854,-0.73235 -5.46299,-2.61511 -7.49089,-4.79273 -0.78733,-0.845571 -1.51301,-1.782535 -2.14538,-2.749412 -0.89814,-1.373955 -1.71713,-3.071343 -3.69421,-2.591112 -1.32138,0.32093 -1.72296,1.387121 -2.39032,2.42448 -0.72485,1.12626 -1.558,2.173368 -2.45614,3.16599 -2.9552,3.266384 -7.14514,5.211224 -11.56669,4.908204 -4.05747,-0.2782 -7.65253,-2.87947 -10.17116,-5.90799 -1.31972,-1.586911 -2.43365,-5.088244 -4.99227,-4.626928 -1.40228,0.25278 -1.8636,1.383373 -2.55712,2.460724 -0.70293,1.091851 -1.50167,2.120047 -2.37265,3.082676 -2.95879,3.270298 -7.261285,5.412088 -11.733328,4.984768 -3.930659,-0.37559 -7.366425,-2.71742 -9.878886,-5.651293 -1.336463,-1.560668 -2.456057,-5.010179 -4.86796,-4.912282 -1.585327,0.06432 -2.141375,1.332632 -2.89038,2.496131 -0.72143,1.120595 -1.540672,2.190533 -2.449227,3.16599 -3.043182,3.266804 -7.017831,5.108404 -11.490125,4.912364 -3.962403,-0.17379 -7.645782,-2.81423 -10.101672,-5.745518 -1.325468,-1.581995 -2.491883,-5.055085 -4.978434,-4.817555 -1.557418,0.148885 -2.08722,1.506928 -2.839311,2.651351 -1.03586,1.576412 -2.309086,3.068509 -3.742616,4.296752 -1.82678,1.56516 -3.95695,2.84206 -6.33198,3.3507 -6.803806,0.84459 -12.068641,0.95383 -4.90661,1.43402 -0.933,1.41278 -2.335734,3.46951 -0.695934,3.99665 1.47041,0.47265 5.452114,0.0597 6.935594,-0.2312 3.79419,-0.74409 7.04274,-2.79074 9.657101,-5.59847 0.825991,-0.88706 1.46677,-1.91951 2.257017,-2.83273 m 0,42.32428 c 0.643198,1.35971 1.8631,2.61277 2.916044,3.66588 5.474495,5.47467 14.436162,6.69857 21.328769,3.25181 1.661144,-0.83066 3.289879,-1.98708 4.568189,-3.33846 1.066023,-1.12642 1.892096,-2.44197 2.930207,-3.57923 0.647446,1.36887 1.857187,2.60694 2.916044,3.66588 6.179176,6.17868 16.808068,6.92103 23.828238,1.69714 1.71813,-1.27806 4.05213,-3.30513 4.8323,-5.36302 h 0.16663 c 0.60612,1.44136 1.9954,2.74608 3.08267,3.83251 6.11119,6.1087 16.77891,6.65192 23.66161,1.53051 1.71213,-1.27389 4.05496,-3.31346 4.83229,-5.36302 h 0.16664 c 0.51155,1.21557 1.66214,2.40782 2.58278,3.33262 2.72191,2.73525 6.07286,4.63318 9.91454,5.22639 6.14657,0.28573 5.97039,0.84148 5.97039,-2.39366 0,-1.2514 5.87326,-1.91548 -2.13788,-2.57029 -1.02644,-0.17329 -2.05789,-0.10081 -3.08267,-0.33659 -3.19431,-0.73401 -5.96539,-2.59195 -8.15076,-5.0081 -0.774,-0.85565 -1.49301,-1.78295 -2.12204,-2.74941 -0.89564,-1.37554 -1.74629,-3.04018 -3.7242,-2.50529 -1.31306,0.35492 -1.7563,1.54466 -2.42032,2.58861 -0.66319,1.04144 -1.45385,1.99207 -2.26951,2.91604 -2.89272,3.2818 -7.16347,5.2922 -11.5567,4.99143 -4.01081,-0.27494 -7.59171,-2.75107 -10.11533,-5.74127 -1.38721,-1.64381 -2.5053,-5.19472 -5.13141,-4.8073 -1.3707,0.20245 -1.84785,1.35554 -2.50388,2.39115 -0.71609,1.13059 -1.55183,2.1637 -2.43556,3.16599 -2.86938,3.25431 -7.25045,5.40385 -11.640341,4.98477 -3.931578,-0.37576 -7.346847,-2.64444 -9.89047,-5.56798 -1.412529,-1.62382 -2.505546,-5.10641 -5.023007,-4.9956 -1.48993,0.065 -2.058643,1.31472 -2.753827,2.41282 -0.735011,1.16059 -1.588662,2.23202 -2.509214,3.24931 -2.944369,3.2543 -7.016748,5.1039 -11.400062,4.91228 -3.95482,-0.1733 -7.642948,-2.73192 -10.115336,-5.66212 -0.624698,-0.74068 -1.216404,-1.51801 -1.741126,-2.33284 -0.846235,-1.31388 -1.540172,-2.76691 -3.390274,-2.56861 -1.480102,0.15913 -2.059644,1.55216 -2.767575,2.65193 -1.036364,1.60965 -2.350837,3.131 -3.814357,4.36656 -1.87984,1.58716 -4.00453,2.77108 -6.41529,3.30846 -1.53172,0.34076 -6.911895,0.23483 -7.957705,1.68452 -1.02965,1.4272 0.928799,3.03314 2.585579,3.60635 1.37946,0.4774 5.305326,0.19041 6.705176,-0.0895 3.06593,-0.6132 6.02979,-1.99207 8.33155,-4.13578 1.424029,-1.32555 2.452726,-2.90438 3.749198,-4.32491 z"
       id="path960-2"
       clip-path="url(#clipPath1439-4)"
       sodipodi:nodetypes="ccccscsccccccccccccccccccccscsscccscccccccccccccccccccccccccccccccccscccscccccccccccccccccsccccccccccccscccccccccccsccccccccccccccccc"
       transform="matrix(0.61197223,0,0,0.61197223,12.62996,75.719237)" />
    <path
       style="fill:#000000;stroke-width:0.264583"
       id="path940"
       d="" />
  </g>
</svg>
