<?xml version="1.0" encoding="UTF-8" standalone="no"?>
<!-- Created with Inkscape (http://www.inkscape.org/) -->

<svg
   width="487.26648"
   height="346.66666"
   viewBox="0 0 128.92259 91.722221"
   version="1.1"
   id="svg29"
   inkscape:version="1.1 (c68e22c387, 2021-05-23)"
   sodipodi:docname="drawwings.svg"
   xmlns:inkscape="http://www.inkscape.org/namespaces/inkscape"
   xmlns:sodipodi="http://sodipodi.sourceforge.net/DTD/sodipodi-0.dtd"
   xmlns="http://www.w3.org/2000/svg"
   xmlns:svg="http://www.w3.org/2000/svg">
  <sodipodi:namedview
     id="namedview31"
     pagecolor="#505050"
     bordercolor="#ffffff"
     borderopacity="1"
     inkscape:pageshadow="0"
     inkscape:pageopacity="0"
     inkscape:pagecheckerboard="1"
     inkscape:document-units="mm"
     showgrid="false"
     fit-margin-top="0"
     fit-margin-left="0"
     fit-margin-right="0"
     fit-margin-bottom="0"
     inkscape:zoom="2.8284271"
     inkscape:cx="179.95868"
     inkscape:cy="159.2758"
     inkscape:window-width="3840"
     inkscape:window-height="2066"
     inkscape:window-x="-11"
     inkscape:window-y="-11"
     inkscape:window-maximized="1"
     inkscape:current-layer="layer2"
     units="px"
     width="811.26764px" />
  <defs
     id="defs26">
    <clipPath
       clipPathUnits="userSpaceOnUse"
       id="clipPath123">
      <rect
         style="fill:#0000ff;fill-rule:evenodd;stroke-width:0.263496"
         id="rect125"
         width="128.92259"
         height="91.72245"
         x="3.6680937"
         y="24.413017" />
    </clipPath>
  </defs>
  <g
     inkscape:groupmode="layer"
     id="layer2"
     inkscape:label="Layer 2">
    <rect
       style="fill:#094890;fill-opacity:1;stroke:none;stroke-width:0.775494;stroke-miterlimit:4;stroke-dasharray:none;stroke-opacity:1"
       id="rect11453"
       width="128.92259"
       height="91.72245"
       x="3.6680937"
       y="24.413017"
       ry="0.021262895"
       transform="translate(-3.6680936,-24.413017)" />
  </g>
  <g
     inkscape:label="Layer 1"
     inkscape:groupmode="layer"
     id="layer1"
     transform="translate(-3.6680937,-24.413017)">
    <path
       style="fill:#000000;stroke-width:0.220486"
       id="path219"
       d="" />
    <path
       style="fill:#000000;stroke-width:0.357746"
       id="path169"
       d="" />
    <path
       style="mix-blend-mode:normal;fill:#000080;fill-opacity:1;stroke:#00014b;stroke-width:0.77549375;stroke-opacity:1;stroke-miterlimit:4;stroke-dasharray:none"
       d="m 2.1884654,34.114408 -0.2204861,9.260416 c 3.0217622,-0.130087 6.0069238,-1.553413 8.0642357,-3.767997 2.200518,-2.368704 4.264995,-6.07889 7.810765,-6.514372 4.570236,-0.561292 7.700698,4.705901 10.620816,7.235384 2.066175,1.78984 5.226403,2.424156 7.900018,2.357128 6.73563,-0.168936 8.562137,-9.011972 15.213542,-9.009834 4.339166,0.0014 6.154208,4.699618 9.260416,6.913166 2.798851,1.994561 7.636096,1.63109 10.80382,0.825125 2.931584,-0.745882 4.890382,-2.58725 6.749301,-4.873669 1.499305,-1.843992 3.210278,-4.303382 5.818408,-4.430646 4.21393,-0.205648 6.642144,5.021549 9.323255,7.403129 2.262849,2.009952 5.700228,1.845888 8.536124,1.637815 3.48456,-0.255653 7.3693,-2.788928 9.68154,-5.271933 1.56457,-1.680258 2.66832,-4.403747 5.31151,-4.392017 2.93313,0.01301 4.16873,3.512917 5.6773,5.494624 2.26219,2.971602 6.10305,5.872714 9.97722,5.953125 l 0.22048,-8.598958 c -2.26461,-0.68838 -4.08913,-1.107943 -5.94452,-2.742649 -3.2557,-2.868789 -5.81709,-7.449344 -10.81242,-7.158643 -7.18851,0.418336 -9.35258,10.56533 -16.977433,9.640148 -6.660445,-0.80817 -8.779537,-10.538261 -16.095487,-9.596929 -6.589448,0.847857 -8.680538,9.586213 -15.434028,9.636573 -7.40238,0.05519 -9.56557,-10.469869 -17.197917,-9.662095 -6.492875,0.687174 -8.54516,9.342897 -14.993056,9.654267 -7.650868,0.369447 -9.801931,-10.194514 -17.418403,-9.672469 -6.896652,0.472713 -8.9076834,9.536716 -15.8750006,9.681311 m 0.6614584,27.340277 c 3.3109297,-0.02734 6.3770979,-1.732139 8.5358332,-4.189236 1.977915,-2.251163 4.226256,-5.819951 7.559653,-5.943423 4.565165,-0.169113 7.13008,4.380618 10.143244,6.979487 2.288866,1.974453 5.219567,2.525889 8.157104,2.490832 6.754813,-0.08026 8.51804,-8.906536 15.213542,-9.027142 4.183504,-0.07541 5.994356,4.502987 8.820327,6.706526 2.930481,2.284897 7.605007,1.9868 11.023424,1.136385 2.132762,-0.53049 4.179534,-1.544946 5.635845,-3.227917 1.905,-2.201553 3.854979,-5.972748 7.152349,-6.14627 3.858948,-0.203289 6.481631,4.686873 8.839289,7.011017 2.131439,2.101233 5.286154,2.405503 8.138146,2.205522 3.63427,-0.254661 7.53489,-2.34972 10.0793,-4.893909 1.87038,-1.870384 3.09188,-5.244924 6.23667,-4.851797 2.79907,0.349911 4.25384,4.291542 5.86846,6.236891 2.37551,2.86213 5.75358,4.596032 9.34508,5.292548 l 0.22049,-8.819444 c -6.74533,-1.270882 -9.13695,-9.021873 -15.875,-9.824222 -7.51373,-0.894732 -9.66986,9.914401 -16.97743,9.72368 -6.827136,-0.178153 -8.9513,-8.925476 -15.654519,-9.72368 -7.142206,-0.850481 -9.523897,8.718263 -16.095486,9.654668 -7.371292,1.050396 -9.843162,-9.284582 -16.977431,-9.669462 -6.645452,-0.358511 -8.800924,7.7907 -14.552084,9.4148 -7.173295,2.025827 -9.786717,-6.677818 -15.434028,-8.821737 -6.526808,-2.477779 -9.753755,3.719689 -14.1111114,7.147366 -1.015515,0.798821 -4.4650908,1.480564 -4.9381416,2.414764 -1.072211,2.117328 -0.3535252,6.376899 -0.3535252,8.723753 m 0.2204861,9.039931 -0.2204861,9.03993 c 3.540566,-0.0097 6.4588541,-1.79167 8.7563192,-4.409722 2.006468,-2.286441 4.170142,-5.655248 7.559653,-5.720733 4.216048,-0.08136 6.985442,4.297054 9.70161,6.802658 1.702373,1.570523 3.884745,2.407488 6.173391,2.628856 2.192514,0.212328 4.489759,0.125016 6.393877,-1.085453 3.647281,-2.318632 5.346347,-6.770908 9.922095,-7.736417 4.711348,-0.994392 6.898791,4.097294 9.922096,6.551304 2.276519,1.847674 5.376995,1.75992 8.157766,1.637991 3.030141,-0.132953 6.260262,-1.253904 8.340108,-3.522486 1.982831,-2.162307 3.961253,-6.169421 7.314406,-6.330156 4.0909,-0.196232 6.650744,5.086394 9.261299,7.395104 2.164292,1.91404 5.206118,1.919993 7.936616,1.79608 3.56526,-0.161837 7.6996,-2.55367 10.12186,-5.07118 1.79718,-1.868179 2.7241,-4.771099 5.75314,-4.611908 2.88132,0.151253 4.11229,3.759288 5.65966,5.722937 2.28049,2.894101 6.02545,5.426384 9.77437,5.732639 l 0.22049,-8.819444 c -7.24848,-0.315957 -9.29878,-9.871825 -16.75695,-9.698082 -7.13912,0.166026 -9.6692,11.156377 -17.197915,9.550576 -6.112096,-1.303513 -8.238023,-9.39844 -14.77257,-9.550576 -7.581635,-0.176609 -9.849556,10.470003 -17.418403,9.659717 -6.59474,-0.705996 -8.575807,-9.591146 -15.434028,-9.662142 -7.380332,-0.07651 -9.463485,9.934883 -16.756945,9.691026 -7.199754,-0.240771 -9.173766,-10.025063 -16.756945,-9.683309 -6.78072,0.305814 -8.7736936,9.392708 -15.6545141,9.69279 m 0.2204861,18.07986 -0.2204861,9.260417 c 3.4405976,-0.271859 6.2625553,-1.865312 8.5615201,-4.409722 2.0419,-2.259762 4.293195,-5.912115 7.754453,-5.913217 6.14142,-0.002 8.695972,8.051712 14.552083,9.293489 2.942387,0.623976 6.185297,0.391584 8.595651,-1.543623 3.184481,-2.556316 5.274249,-7.061729 9.925183,-7.157861 4.318221,-0.08952 6.102835,4.345561 9.059775,6.660224 2.420937,1.894858 6.102173,1.772267 9.020087,1.489825 2.891675,-0.279797 5.717866,-1.513858 7.653293,-3.711664 1.882511,-2.137612 3.888273,-5.916744 7.119276,-6.011994 4.242153,-0.124795 6.506766,5.119246 9.269016,7.453092 2.272771,1.919993 5.349434,1.764991 8.149383,1.637991 3.52007,-0.159852 7.53159,-2.571309 9.90204,-5.065889 1.67437,-1.761904 2.69147,-4.702748 5.53199,-4.614113 2.92629,0.09128 4.09818,3.511462 5.62306,5.499144 2.27233,2.962231 6.16457,5.873089 10.03146,5.953346 v -8.819445 c -7.01675,-0.149489 -9.0353,-9.606138 -16.09549,-9.697199 -7.16668,-0.09283 -9.17266,9.385432 -16.09549,9.688601 -7.447797,0.326098 -9.516618,-9.93312 -16.977427,-9.683309 -7.08466,0.237463 -9.138709,9.832578 -16.315973,9.6886 -7.371512,-0.147946 -9.622014,-11.222302 -17.638889,-9.517503 -6.011333,1.278158 -8.128662,9.388519 -14.552084,9.517503 -7.516812,0.150813 -9.665009,-10.489847 -17.418403,-9.659717 -6.619169,0.708643 -8.608109,9.517504 -15.434028,9.663024 m 0,27.560764 c 3.3029923,-0.0681 6.3726661,-1.73523 8.535833,-4.18946 1.985412,-2.25248 4.244292,-5.84089 7.559654,-6.0874 4.500253,-0.33492 7.462352,4.60993 10.362847,7.14926 2.135849,1.86973 5.369719,2.5669 8.157986,2.44321 6.596283,-0.2928 8.426539,-9.01523 14.993056,-9.01523 4.366507,0 6.035146,4.40156 9.039931,6.71666 2.762912,2.12858 7.355637,1.92595 10.583334,1.16704 2.211916,-0.52013 4.367168,-1.53018 5.886979,-3.25857 1.908969,-2.17068 3.84616,-6.02324 7.121702,-6.19125 4.283163,-0.21982 6.692194,5.09632 9.481123,7.47051 2.25888,1.92308 5.796359,1.85319 8.598739,1.552 3.25636,-0.34969 6.95656,-2.53272 9.1967,-4.85003 1.66356,-1.72089 2.8037,-4.79535 5.57587,-4.79535 2.9404,0 4.247,3.47662 5.73595,5.49451 2.16098,2.92872 6.14384,5.87265 9.91856,5.95313 l 0.22049,-8.81945 c -6.96273,-0.0584 -8.99253,-9.209481 -15.875,-9.681321 -7.40238,-0.507339 -9.4443,9.513091 -16.53646,9.678021 -7.114425,0.16558 -9.196255,-9.003334 -16.095486,-9.660382 -7.112662,-0.677334 -9.205957,8.644822 -15.654515,9.597322 -7.74237,1.14344 -9.94216,-9.191848 -17.197917,-9.61452 -6.783035,-0.395111 -9.015898,7.98204 -14.993056,9.51309 -6.934288,1.77646 -9.585854,-6.757675 -14.993056,-8.856923 -6.642232,-2.578806 -9.858154,3.690713 -14.3324571,7.166463 -0.9893653,0.76839 -4.5019406,1.48277 -4.9372817,2.36934 -1.0455672,2.12946 -0.048785,6.33809 -0.3535252,8.74933 z"
       id="path443"
       clip-path="url(#clipPath123)" />
  </g>
</svg>
