<?xml version="1.0" encoding="UTF-8" standalone="no"?>
<!-- Created with Inkscape (http://www.inkscape.org/) -->

<svg
   width="121.82853"
   height="20"
   viewBox="0 0 32.233796 5.2916668"
   version="1.1"
   id="svg5"
   sodipodi:docname="water.svg"
   inkscape:version="1.1 (c68e22c387, 2021-05-23)"
   xmlns:inkscape="http://www.inkscape.org/namespaces/inkscape"
   xmlns:sodipodi="http://sodipodi.sourceforge.net/DTD/sodipodi-0.dtd"
   xmlns="http://www.w3.org/2000/svg"
   xmlns:svg="http://www.w3.org/2000/svg">
  <sodipodi:namedview
     id="namedview7"
     pagecolor="#505050"
     bordercolor="#ffffff"
     borderopacity="1"
     inkscape:pageshadow="0"
     inkscape:pageopacity="0"
     inkscape:pagecheckerboard="1"
     inkscape:document-units="mm"
     showgrid="false"
     inkscape:zoom="11.313709"
     inkscape:cx="34.648232"
     inkscape:cy="-9.4575532"
     inkscape:window-width="3840"
     inkscape:window-height="2066"
     inkscape:window-x="-11"
     inkscape:window-y="-11"
     inkscape:window-maximized="1"
     inkscape:current-layer="layer1"
     fit-margin-top="0"
     fit-margin-left="0"
     fit-margin-right="0"
     fit-margin-bottom="0"
     units="px"
     height="318.19864px" />
  <defs
     id="defs2">
    <clipPath
       clipPathUnits="userSpaceOnUse"
       id="clipPath1439">
      <rect
         style="fill:#0000db;fill-opacity:1;stroke-width:0.264583"
         id="rect1441"
         width="129.7036"
         height="100.70103"
         x="31.82445"
         y="51.728146" />
    </clipPath>
    <clipPath
       clipPathUnits="userSpaceOnUse"
       id="clipPath1439-4">
      <rect
         style="fill:#0000db;fill-opacity:1;stroke-width:0.264583"
         id="rect1441-7"
         width="129.7036"
         height="100.70103"
         x="31.82445"
         y="51.728146" />
    </clipPath>
    <clipPath
       clipPathUnits="userSpaceOnUse"
       id="clipPath1439-4-3">
      <rect
         style="fill:#0000db;fill-opacity:1;stroke-width:0.264583"
         id="rect1441-7-9"
         width="129.7036"
         height="100.70103"
         x="31.82445"
         y="51.728146" />
    </clipPath>
  </defs>
  <g
     inkscape:groupmode="layer"
     id="layer2"
     inkscape:label="background"
     transform="translate(-1.4731714e-7,-6.6145864)">
    <rect
       style="fill:#1f2933;fill-opacity:1;stroke-width:0.273816"
       id="rect3013"
       width="34.949398"
       height="5.396904"
       x="-1.2172834"
       y="6.6145864" />
  </g>
  <g
     inkscape:label="Layer 1"
     inkscape:groupmode="layer"
     id="layer1"
     transform="translate(-32.105639,-107.37543)">
    <path
       style="fill:#486581;fill-opacity:1;stroke:#12121f;stroke-width:0.0833154;stroke-opacity:1"
       d="m 49.142999,58.817128 c 0.587959,1.397701 1.943584,2.693507 2.999358,3.749198 5.387931,5.387597 14.370177,6.624583 21.162141,3.228642 3.307626,-1.653813 5.235796,-4.266504 7.58171,-6.97784 0.593625,1.411365 1.93467,2.684509 2.999359,3.749198 5.424839,5.42484 14.52189,6.655575 21.328773,3.144411 1.66514,-0.8589 3.29212,-2.023986 4.57493,-3.394441 1.03153,-1.102014 1.83036,-2.392796 2.84015,-3.499168 0.57737,1.500929 2.11621,2.907044 3.2493,4.002395 5.41884,5.23488 14.40609,6.333061 21.07882,2.891214 1.66548,-0.8589 3.2918,-2.023986 4.57486,-3.394441 1.03228,-1.102431 1.82961,-2.391838 2.84023,-3.499168 0.46739,1.215323 1.67547,2.423648 2.58278,3.33262 2.76191,2.766573 6.0437,4.583353 9.91454,5.228299 12.80227,1.186465 7.33863,0.795551 7.33446,-2.428843 -0.002,-1.183246 6.99107,-1.504569 -3.41863,-2.522098 -1.19391,-0.209789 -2.39032,-0.137388 -3.58257,-0.435241 -3.05018,-0.762336 -5.62463,-2.652016 -7.74084,-4.924363 -0.78067,-0.838445 -1.49635,-1.786751 -2.11621,-2.749412 -0.87065,-1.351386 -1.7138,-2.975631 -3.64006,-2.507825 -1.26723,0.307867 -1.70047,1.335601 -2.337,2.341194 -0.71235,1.12426 -1.53384,2.179767 -2.42614,3.16599 -2.99187,3.306709 -7.16681,5.298782 -11.65001,4.991515 -3.99332,-0.273775 -7.6392,-2.818305 -10.11367,-5.82467 -1.30556,-1.586961 -2.49697,-5.170312 -5.04976,-4.710286 -1.36496,0.246 -1.83385,1.319386 -2.50388,2.377451 -0.69018,1.089826 -1.47701,2.125696 -2.34258,3.082674 -2.99527,3.311708 -7.28178,5.501407 -11.816638,5.068082 -3.935908,-0.376086 -7.363924,-2.710303 -9.878886,-5.651291 -0.693684,-0.811268 -1.320885,-1.682614 -1.89401,-2.58278 -0.748007,-1.174849 -1.362877,-2.383107 -2.97395,-2.329234 -1.54167,0.05155 -2.116045,1.273793 -2.837141,2.412549 -0.709766,1.120769 -1.514177,2.194364 -2.419148,3.16599 -3.082425,3.309209 -7.036996,5.194303 -11.573443,4.99568 C 59.91403,62.139 56.247145,59.497899 53.774509,56.567609 52.506862,55.06533 51.332782,51.583893 48.97637,51.762373 c -1.747544,0.132367 -2.243772,1.529037 -3.111335,2.805664 -1.044277,1.536604 -2.298174,3.011856 -3.720544,4.212515 -1.86526,1.574497 -4.01532,2.794402 -6.41529,3.314041 -2.184704,0.19067 -9.215711,0.816972 -4.73034,1.388536 -0.93254,1.355045 -5.144833,2.047409 -0.02342,3.968885 1.46383,0.519388 4.77364,0.09258 6.25344,-0.203357 3.39211,-0.678356 6.55585,-2.382073 8.974331,-4.863127 1.086933,-1.115011 1.927754,-2.398736 2.939787,-3.568402"
       id="path960-2"
       clip-path="url(#clipPath1439-4)"
       sodipodi:nodetypes="ccccscsccccccccccccccccccccscsscccsccccccccc"
       transform="matrix(0.24851893,0,0,0.24851893,24.19666,95.181465)" />
    <path
       style="fill:#000000;stroke-width:0.264583"
       id="path940"
       d="" />
  </g>
</svg>
