<svg height="512pt" viewBox="0 -57 512 512" width="512pt" xmlns="http://www.w3.org/2000/svg"><path d="m31.144531 338.546875v43.480469c0 8.289062 6.71875 15.011718 15.007813 15.011718 8.289062 0 15.007812-6.722656 15.007812-15.011718v-48.59375h-30.015625zm0 0"/><path d="m452.109375 338.546875v43.480469c0 8.289062 6.71875 15.011718 15.007813 15.011718 8.289062 0 15.007812-6.722656 15.007812-15.011718v-48.59375h-30.015625zm0 0"/><path d="m478.886719 226.160156h-68.171875v-43.859375h45.027344c8.289062 0 15.007812-6.71875 15.007812-15.007812v-29.867188c0-8.285156-6.71875-15.007812-15.007812-15.007812h-45.027344v-30.015625h45.027344c8.289062 0 15.007812-6.71875 15.007812-15.007813v-30.015625c0-8.289062-6.71875-15.007812-15.007812-15.007812h-45.027344v-16.355469c0-8.082031-6.210938-15.03125-14.28125-15.414063-8.621094-.40625-15.734375 6.460938-15.734375 14.992188v16.777344h-244.546875v-16.9375c0-8.082032-6.210938-15.035156-14.28125-15.417969-8.621094-.40625-15.734375 6.464844-15.734375 14.992187v17.363282h-49.730469c-8.289062 0-15.007812 6.71875-15.007812 15.007812v30.015625c0 8.289063 6.71875 15.007813 15.007812 15.007813h49.730469v30.015625h-49.730469c-8.289062 0-15.007812 6.722656-15.007812 15.007812v29.867188c0 8.289062 6.71875 15.007812 15.007812 15.007812h49.730469v43.859375h-70.101563c-19.871094 0-36.035156 22.742188-36.035156 50.691406v16.5625c0 5.523438 4.480469 10.003907 10.003906 10.003907h501.996094v-30.675781c0-25.683594-14.855469-46.582032-33.113281-46.582032zm-342.734375-133.757812h244.546875v30.019531h-244.546875zm0 95.054687v-5.15625h244.546875v43.863281h-244.546875zm0 0"/></svg>