<?xml version="1.0" encoding="UTF-8" standalone="no"?>
<!DOCTYPE svg PUBLIC "-//W3C//DTD SVG 1.1//EN" "http://www.w3.org/Graphics/SVG/1.1/DTD/svg11.dtd">
<svg width="100%" height="100%" viewBox="0 0 512 512" version="1.1" xmlns="http://www.w3.org/2000/svg" xmlns:xlink="http://www.w3.org/1999/xlink" xml:space="preserve" xmlns:serif="http://www.serif.com/" style="fill-rule:evenodd;clip-rule:evenodd;stroke-linejoin:round;stroke-miterlimit:2;">
    <path d="M31.145,390.434L31.145,439.027C31.145,447.316 37.863,454.039 46.152,454.039C54.441,454.039 61.16,447.316 61.16,439.027L61.16,390.434L31.145,390.434Z" style="fill-opacity:0.3;fill-rule:nonzero;"/>
    <path d="M452.109,390.434L452.109,439.027C452.109,447.316 458.828,454.039 467.117,454.039C475.406,454.039 482.125,447.316 482.125,439.027L482.125,390.434L452.109,390.434Z" style="fill-opacity:0.3;fill-rule:nonzero;"/>
    <path d="M478.887,283.16L410.715,283.16L410.715,239.301L455.742,239.301C464.031,239.301 470.75,232.582 470.75,224.293L470.75,194.426C470.75,186.141 464.031,179.418 455.742,179.418L410.715,179.418L410.715,149.402L455.742,149.402C464.031,149.402 470.75,142.684 470.75,134.395L470.75,104.379C470.75,96.09 464.031,89.371 455.742,89.371L410.715,89.371L410.715,73.016C410.715,64.934 404.504,57.984 396.434,57.602C387.813,57.195 380.699,64.063 380.699,72.594L380.699,89.371L136.152,89.371L136.152,72.434C136.152,64.352 129.941,57.398 121.871,57.016C113.25,56.609 106.137,63.48 106.137,72.008L106.137,89.371L56.406,89.371C48.117,89.371 41.398,96.09 41.398,104.379L41.398,134.395C41.398,142.684 48.117,149.402 56.406,149.402L106.137,149.402L106.137,179.418L56.406,179.418C48.117,179.418 41.398,186.141 41.398,194.426L41.398,224.293C41.398,232.582 48.117,239.301 56.406,239.301L106.137,239.301L106.137,283.16L36.035,283.16C16.164,283.16 0,305.902 0,333.852L0,350.414C0,355.938 4.48,360.418 10.004,360.418L512,360.418L512,329.742C512,304.059 497.145,283.16 478.887,283.16ZM136.152,149.402L380.699,149.402L380.699,179.422L136.152,179.422L136.152,149.402ZM136.152,283.164L136.152,239.301L380.699,239.301L380.699,283.164L136.152,283.164Z" style="fill-opacity:0.3;fill-rule:nonzero;"/>
</svg>
