<?xml version="1.0" encoding="UTF-8" standalone="no"?>
<!DOCTYPE svg PUBLIC "-//W3C//DTD SVG 1.1//EN" "http://www.w3.org/Graphics/SVG/1.1/DTD/svg11.dtd">
<svg width="100%" height="100%" viewBox="0 0 318 512" version="1.1" xmlns="http://www.w3.org/2000/svg" xmlns:xlink="http://www.w3.org/1999/xlink" xml:space="preserve" style="fill-rule:evenodd;clip-rule:evenodd;stroke-linejoin:round;stroke-miterlimit:2;">
    <path d="M136.274,85.958C120.943,133.82 113.483,140.411 122.759,174.916C93.511,136.873 111.782,105.676 124.608,61.104C139.952,7.78 125.518,0 125.518,0C125.518,0 153.506,18.973 136.274,85.958Z" style="fill:white;"/>
    <g transform="matrix(1,0,0,1,42.9118,14.0049)">
        <path d="M136.274,85.958C120.943,133.82 112.523,129.229 122.49,164.901C98.252,136.758 109.023,113.483 121.006,81.737C139.532,32.653 125.225,30.109 125.225,30.109C125.225,30.109 149.209,45.576 136.274,85.958Z" style="fill:white;"/>
    </g>
    <path d="M9.934,215.881C9.488,220.184 11.513,305.076 103.387,338.475C74.968,393.256 65.364,415.187 65.364,415.187C15.382,401.829 -28.127,470.308 31.716,507.641C92.443,524.382 100.78,464.719 100.78,464.719L228.961,464.791L248.02,505.446C248.02,505.446 266.981,523.62 271.355,495.631C256.498,468.969 193.882,336.335 193.882,336.335C193.882,336.335 252.31,320.904 278.312,249.817C290.394,249.339 309.878,249.017 309.878,249.017C309.878,249.017 326.017,238.969 311.523,227.625C296.137,226.867 284.45,227.26 284.45,227.26L285.276,216.187C291.945,216.173 303.444,204.808 287.27,198.697C247.322,198.157 8.405,198.325 8.405,198.325C-10.433,208.616 9.934,215.881 9.934,215.881ZM128.104,344.242C128.104,344.242 161.809,345.861 170.806,343.135C187.751,381.296 219.761,447.174 219.761,447.174L97.661,447.028C97.661,447.028 91.724,433.984 85.292,428.19C101.496,395.836 128.104,344.242 128.104,344.242ZM41.812,241.696C41.812,241.696 42.062,230.152 52.18,236.273C55.891,249.753 72.993,266.967 72.993,266.967C74.569,273.714 76.664,280.331 64.365,276.388C53.53,267.862 41.812,241.696 41.812,241.696Z" style="fill:white;"/>
</svg>
