<?xml version="1.0" encoding="UTF-8" standalone="no"?>
<!DOCTYPE svg PUBLIC "-//W3C//DTD SVG 1.1//EN" "http://www.w3.org/Graphics/SVG/1.1/DTD/svg11.dtd">
<svg width="100%" height="100%" viewBox="0 0 512 512" version="1.1" xmlns="http://www.w3.org/2000/svg" xmlns:xlink="http://www.w3.org/1999/xlink" xml:space="preserve" style="fill-rule:evenodd;clip-rule:evenodd;stroke-linejoin:round;stroke-miterlimit:2;">
    <g>
        <path d="M334.179,225.378C363.907,225.378 388.571,203.753 393.334,175.378L118.666,175.378C123.429,203.753 148.092,225.378 177.821,225.378L226,225.378L226,396.622L143.207,396.622C134.923,396.622 128.207,403.338 128.207,411.622C128.207,419.906 134.923,426.622 143.207,426.622L368.793,426.622C377.077,426.622 383.793,419.906 383.793,411.622C383.793,403.338 377.077,396.622 368.793,396.622L286,396.622L286,225.378L334.179,225.378Z" style="fill:white;fill-rule:nonzero;"/>
        <path d="M497,85.378L15,85.378C6.716,85.378 0,92.094 0,100.378L0,130.378C0,138.662 6.716,145.378 15,145.378L497,145.378C505.284,145.378 512,138.662 512,130.378L512,100.378C512,92.094 505.284,85.378 497,85.378Z" style="fill:white;fill-rule:nonzero;"/>
    </g>
</svg>
